<svg width="760" height="450" viewBox="0 0 760 450" fill="none" xmlns="http://www.w3.org/2000/svg">
  <defs>
    <linearGradient id="sky" x1="380" y1="0" x2="380" y2="236" gradientUnits="userSpaceOnUse">
      <stop stop-color="#79A9FF"/>
      <stop offset="0.55" stop-color="#3559C7"/>
      <stop offset="1" stop-color="#1F2C74"/>
    </linearGradient>
    <linearGradient id="water" x1="380" y1="250" x2="380" y2="450" gradientUnits="userSpaceOnUse">
      <stop stop-color="#2352B2"/>
      <stop offset="0.55" stop-color="#0D2D6B"/>
      <stop offset="1" stop-color="#08142E"/>
    </linearGradient>
    <linearGradient id="bridge" x1="362" y1="212" x2="662" y2="326" gradientUnits="userSpaceOnUse">
      <stop stop-color="#FFD86B"/>
      <stop offset="1" stop-color="#FF8C34"/>
    </linearGradient>
    <linearGradient id="culture" x1="98" y1="274" x2="201" y2="366" gradientUnits="userSpaceOnUse">
      <stop stop-color="#00E0FF"/>
      <stop offset="0.5" stop-color="#2D7DFF"/>
      <stop offset="1" stop-color="#FF46D4"/>
    </linearGradient>
    <filter id="glow" x="-40" y="-40" width="840" height="530" filterUnits="userSpaceOnUse" color-interpolation-filters="sRGB">
      <feGaussianBlur stdDeviation="8" result="blur"/>
      <feMerge>
        <feMergeNode in="blur"/>
        <feMergeNode in="SourceGraphic"/>
      </feMerge>
    </filter>
  </defs>

  <rect width="760" height="450" rx="32" fill="#0B163B"/>
  <rect width="760" height="250" rx="32" fill="url(#sky)"/>
  <rect y="250" width="760" height="200" rx="0" fill="url(#water)"/>

  <path d="M0 205C63 175 118 163 183 176C239 188 291 213 351 204C427 193 479 148 554 152C621 155 694 188 760 206V250H0V205Z" fill="#263E8D"/>
  <path d="M0 220C65 200 122 192 182 205C255 221 321 246 401 232C477 219 548 170 612 174C675 178 716 202 760 224V250H0V220Z" fill="#1D2B68"/>

  <g opacity="0.95">
    <rect x="438" y="160" width="12" height="73" fill="#0E1E4E"/>
    <rect x="454" y="149" width="22" height="84" fill="#17275B"/>
    <rect x="482" y="170" width="18" height="63" fill="#132353"/>
    <rect x="507" y="144" width="26" height="89" fill="#19295F"/>
    <rect x="538" y="155" width="15" height="78" fill="#142450"/>
    <rect x="558" y="137" width="28" height="96" fill="#1A2D68"/>
    <rect x="593" y="167" width="18" height="66" fill="#112047"/>
    <rect x="618" y="150" width="24" height="83" fill="#172A5A"/>
    <rect x="648" y="161" width="18" height="72" fill="#132351"/>
    <rect x="671" y="145" width="24" height="88" fill="#182A61"/>
  </g>

  <g opacity="0.85">
    <rect x="35" y="183" width="16" height="44" fill="#213A88"/>
    <rect x="57" y="169" width="20" height="58" fill="#274395"/>
    <rect x="84" y="175" width="15" height="52" fill="#203986"/>
    <rect x="104" y="160" width="22" height="67" fill="#2A469A"/>
    <rect x="133" y="178" width="18" height="49" fill="#1F3885"/>
    <rect x="157" y="166" width="22" height="61" fill="#264292"/>
    <rect x="185" y="174" width="14" height="53" fill="#203882"/>
    <rect x="204" y="158" width="24" height="69" fill="#29479B"/>
    <rect x="236" y="171" width="18" height="56" fill="#24418F"/>
  </g>

  <g filter="url(#glow)">
    <path d="M327 220L641 220L704 276L390 276L327 220Z" fill="url(#bridge)"/>
    <path d="M374 236L683 236L714 268L405 268L374 236Z" fill="#FFF4BD" fill-opacity="0.85"/>
  </g>

  <g opacity="0.55">
    <path d="M373 219V336" stroke="#F6B343" stroke-width="6"/>
    <path d="M405 220V349" stroke="#F6B343" stroke-width="6"/>
    <path d="M439 220V357" stroke="#F6B343" stroke-width="6"/>
    <path d="M472 220V363" stroke="#F6B343" stroke-width="6"/>
    <path d="M506 220V370" stroke="#F6B343" stroke-width="6"/>
    <path d="M539 220V374" stroke="#F6B343" stroke-width="6"/>
    <path d="M573 220V380" stroke="#F6B343" stroke-width="6"/>
    <path d="M606 220V383" stroke="#F6B343" stroke-width="6"/>
    <path d="M640 220V386" stroke="#F6B343" stroke-width="6"/>
  </g>

  <g filter="url(#glow)">
    <ellipse cx="149" cy="313" rx="84" ry="53" fill="url(#culture)"/>
    <rect x="81" y="271" width="139" height="86" rx="32" fill="url(#culture)"/>
    <path d="M83 330C119 302 179 294 218 323" stroke="#79F0FF" stroke-width="10" stroke-linecap="round"/>
  </g>

  <g opacity="0.95">
    <circle cx="89" cy="377" r="3.5" fill="#FFF9D4"/>
    <circle cx="115" cy="346" r="4" fill="#FFE788"/>
    <circle cx="170" cy="383" r="3.5" fill="#FFF4B5"/>
    <circle cx="231" cy="366" r="4" fill="#FFD34F"/>
    <circle cx="530" cy="406" r="3.5" fill="#FFD860"/>
    <circle cx="606" cy="349" r="4" fill="#FFE48E"/>
    <circle cx="696" cy="396" r="3.5" fill="#FFC73A"/>
    <circle cx="713" cy="332" r="4" fill="#FFF0B2"/>
  </g>

  <g opacity="0.8">
    <path d="M446 168L446 134" stroke="#FF8E8E" stroke-width="2"/>
    <circle cx="446" cy="131" r="3" fill="#FF8E8E"/>
    <path d="M566 141L566 102" stroke="#FF8E8E" stroke-width="2"/>
    <circle cx="566" cy="99" r="3" fill="#FF8E8E"/>
    <path d="M683 149L683 112" stroke="#FF8E8E" stroke-width="2"/>
    <circle cx="683" cy="109" r="3" fill="#FF8E8E"/>
  </g>

  <text x="375" y="208" text-anchor="middle" fill="white" font-size="156" font-family="Arial, Helvetica, sans-serif" font-weight="800" letter-spacing="-8">2026</text>
</svg>
